<?xml version="1.0" encoding="UTF-8" standalone="no"?>
<svg
   viewBox="0 0 82.626 82.627"
   version="1.1"
   id="svg11"
   xmlns="http://www.w3.org/2000/svg"
   xmlns:svg="http://www.w3.org/2000/svg">
  <defs
     id="defs15" />
  <path
     d="M5.206,19.956l0.199,42.771c0.003,0.55,0.306,1.054,0.789,1.314l34.161,17.887c0.223,0.119,0.467,0.179,0.711,0.179 c0.001,0,0.002,0,0.003,0c0.103,0.117,0.218,0.227,0.355,0.309c0.236,0.141,0.502,0.212,0.769,0.212 c0.246,0,0.49-0.061,0.712-0.181l33.729-18.292c0.484-0.263,0.787-0.77,0.787-1.319v-44.5c0-0.013-0.005-0.025-0.005-0.039 c-0.001-0.011,0.003-0.021,0.003-0.033c-0.002-0.043-0.019-0.082-0.022-0.124c-0.013-0.082-0.022-0.164-0.047-0.243 c-0.018-0.055-0.041-0.104-0.064-0.157c-0.031-0.07-0.062-0.139-0.104-0.203c-0.031-0.05-0.068-0.095-0.105-0.141 c-0.047-0.058-0.096-0.112-0.152-0.163c-0.044-0.04-0.091-0.076-0.141-0.111c-0.032-0.022-0.059-0.053-0.094-0.073 c-0.032-0.02-0.069-0.028-0.104-0.045c-0.029-0.015-0.052-0.036-0.081-0.049L41.747,0.118c-0.405-0.171-0.864-0.155-1.258,0.042 L6.131,18.071c-0.504,0.254-0.822,0.77-0.825,1.333c0,0.009,0.004,0.017,0.004,0.025C5.249,19.596,5.205,19.772,5.206,19.956z M72.456,18.501l-30.28,16.93L10.111,19.425L41.218,3.151L72.456,18.501z M43.692,78.61V38.021l30.729-17.173v41.09L43.692,78.61z"
     id="path9" />
  <g
     aria-label="M"
     transform="matrix(1.0534607,-0.60821582,0,0.94925233,0,33.875854)"
     id="text2581"
     style="font-weight:bold;font-size:32.3462px;line-height:1.25;-inkscape-font-specification:'sans-serif, Bold';stroke-width:0.808656">
    <path
       d="M 68.024345,64.544769 H 61.991021 V 48.798109 L 57.631865,59.016854 H 53.446444 L 49.087288,48.798109 v 15.74666 H 43.369845 V 41.02744 h 7.044143 l 5.291004,11.79815 5.27521,-11.79815 h 7.044143 z"
       id="path2681" />
  </g>
  <text
     xml:space="preserve"
     style="font-style:normal;font-variant:normal;font-weight:bold;font-stretch:normal;font-size:34.3032px;line-height:1.25;font-family:sans-serif;-inkscape-font-specification:'sans-serif, Bold';font-variant-ligatures:normal;font-variant-caps:normal;font-variant-numeric:normal;font-variant-east-asian:normal;fill:#ffffff;fill-opacity:1;stroke:none;stroke-width:0.857578"
     x="14.346551"
     y="52.290394"
     id="text3981"
     transform="skewY(25)"><tspan
       id="tspan3979"
       x="14.346551"
       y="52.290394"
       style="stroke-width:0.857578">I</tspan></text>
</svg>
